<svg width="108" height="16" viewBox="0 0 108 16" fill="none" xmlns="http://www.w3.org/2000/svg">
<path d="M9.2 7.72C10.0133 7.94667 10.64 8.36 11.08 8.96C11.5333 9.56 11.76 10.2933 11.76 11.16C11.76 12.36 11.3267 13.3 10.46 13.98C9.60667 14.66 8.42667 15 6.92 15H1.76C1.37333 15 1.06667 14.8933 0.84 14.68C0.626667 14.4667 0.52 14.1667 0.52 13.78V2.12C0.52 1.73333 0.626667 1.43333 0.84 1.22C1.06667 1.00667 1.37333 0.899999 1.76 0.899999H6.72C8.18667 0.899999 9.33333 1.22667 10.16 1.88C11 2.52 11.42 3.42 11.42 4.58C11.42 5.32667 11.22 5.97333 10.82 6.52C10.4333 7.06667 9.89333 7.46667 9.2 7.72ZM3.04 6.84H6.3C8.07333 6.84 8.96 6.18 8.96 4.86C8.96 4.19333 8.74 3.7 8.3 3.38C7.86 3.06 7.19333 2.9 6.3 2.9H3.04V6.84ZM6.64 13C7.57333 13 8.25333 12.8333 8.68 12.5C9.10667 12.1667 9.32 11.6467 9.32 10.94C9.32 10.2333 9.1 9.70667 8.66 9.36C8.23333 9.01333 7.56 8.84 6.64 8.84H3.04V13H6.64ZM19.4123 5.02C19.759 4.99333 20.0323 5.06667 20.2323 5.24C20.4323 5.41333 20.5323 5.67333 20.5323 6.02C20.5323 6.38 20.4457 6.64667 20.2723 6.82C20.099 6.99333 19.7857 7.10667 19.3323 7.16L18.7323 7.22C17.9457 7.3 17.3657 7.56667 16.9923 8.02C16.6323 8.47333 16.4523 9.04 16.4523 9.72V13.92C16.4523 14.3067 16.3323 14.6067 16.0923 14.82C15.8523 15.02 15.5523 15.12 15.1923 15.12C14.8323 15.12 14.5323 15.02 14.2923 14.82C14.0657 14.6067 13.9523 14.3067 13.9523 13.92V6.18C13.9523 5.80667 14.0657 5.52 14.2923 5.32C14.5323 5.12 14.8257 5.02 15.1723 5.02C15.519 5.02 15.799 5.12 16.0123 5.32C16.2257 5.50667 16.3323 5.78 16.3323 6.14V6.94C16.5857 6.35333 16.959 5.9 17.4523 5.58C17.959 5.26 18.519 5.08 19.1323 5.04L19.4123 5.02ZM25.8095 4.98C27.1695 4.98 28.1762 5.32 28.8295 6C29.4962 6.66667 29.8295 7.68667 29.8295 9.06V13.94C29.8295 14.3 29.7229 14.5867 29.5095 14.8C29.2962 15 29.0029 15.1 28.6295 15.1C28.2829 15.1 27.9962 14.9933 27.7695 14.78C27.5562 14.5667 27.4495 14.2867 27.4495 13.94V13.5C27.2229 14.02 26.8629 14.4267 26.3695 14.72C25.8895 15.0133 25.3295 15.16 24.6895 15.16C24.0362 15.16 23.4429 15.0267 22.9095 14.76C22.3762 14.4933 21.9562 14.1267 21.6495 13.66C21.3429 13.1933 21.1895 12.6733 21.1895 12.1C21.1895 11.38 21.3695 10.8133 21.7295 10.4C22.1029 9.98667 22.7029 9.68667 23.5295 9.5C24.3562 9.31333 25.4962 9.22 26.9495 9.22H27.4495V8.76C27.4495 8.10667 27.3095 7.63333 27.0295 7.34C26.7495 7.03333 26.2962 6.88 25.6695 6.88C25.2829 6.88 24.8895 6.94 24.4895 7.06C24.0895 7.16667 23.6162 7.32667 23.0695 7.54C22.7229 7.71333 22.4695 7.8 22.3095 7.8C22.0695 7.8 21.8695 7.71333 21.7095 7.54C21.5629 7.36667 21.4895 7.14 21.4895 6.86C21.4895 6.63333 21.5429 6.44 21.6495 6.28C21.7695 6.10667 21.9629 5.94667 22.2295 5.8C22.6962 5.54667 23.2495 5.34667 23.8895 5.2C24.5429 5.05333 25.1829 4.98 25.8095 4.98ZM25.1895 13.36C25.8562 13.36 26.3962 13.14 26.8095 12.7C27.2362 12.2467 27.4495 11.6667 27.4495 10.96V10.54H27.0895C26.1962 10.54 25.5029 10.58 25.0095 10.66C24.5162 10.74 24.1629 10.88 23.9495 11.08C23.7362 11.28 23.6295 11.5533 23.6295 11.9C23.6295 12.3267 23.7762 12.68 24.0695 12.96C24.3762 13.2267 24.7495 13.36 25.1895 13.36ZM38.0503 4.98C39.2236 4.98 40.097 5.31333 40.6703 5.98C41.2436 6.64667 41.5303 7.65333 41.5303 9V13.92C41.5303 14.2933 41.417 14.5867 41.1903 14.8C40.977 15.0133 40.677 15.12 40.2903 15.12C39.9036 15.12 39.597 15.0133 39.3703 14.8C39.1436 14.5867 39.0303 14.2933 39.0303 13.92V9.14C39.0303 8.38 38.8836 7.82667 38.5903 7.48C38.3103 7.13333 37.8636 6.96 37.2503 6.96C36.5303 6.96 35.9503 7.18667 35.5103 7.64C35.0836 8.09333 34.8703 8.7 34.8703 9.46V13.92C34.8703 14.2933 34.757 14.5867 34.5303 14.8C34.3036 15.0133 33.997 15.12 33.6103 15.12C33.2236 15.12 32.917 15.0133 32.6903 14.8C32.477 14.5867 32.3703 14.2933 32.3703 13.92V6.18C32.3703 5.83333 32.4836 5.55333 32.7103 5.34C32.937 5.12667 33.2436 5.02 33.6303 5.02C33.977 5.02 34.257 5.12667 34.4703 5.34C34.697 5.54 34.8103 5.80667 34.8103 6.14V6.68C35.1436 6.13333 35.5903 5.71333 36.1503 5.42C36.7103 5.12667 37.3436 4.98 38.0503 4.98ZM52.2295 0.799999C52.6029 0.799999 52.9095 0.906666 53.1495 1.12C53.3895 1.33333 53.5095 1.61333 53.5095 1.96V13.92C53.5095 14.28 53.3962 14.5667 53.1695 14.78C52.9429 14.9933 52.6429 15.1 52.2695 15.1C51.8962 15.1 51.5962 14.9933 51.3695 14.78C51.1429 14.5667 51.0295 14.28 51.0295 13.92V13.42C50.7362 13.9667 50.3095 14.3933 49.7495 14.7C49.2029 15.0067 48.5762 15.16 47.8695 15.16C47.0295 15.16 46.2762 14.9467 45.6095 14.52C44.9562 14.0933 44.4429 13.4933 44.0695 12.72C43.7095 11.9333 43.5295 11.0333 43.5295 10.02C43.5295 9.00667 43.7095 8.12 44.0695 7.36C44.4429 6.6 44.9562 6.01333 45.6095 5.6C46.2629 5.18667 47.0162 4.98 47.8695 4.98C48.5762 4.98 49.2029 5.12667 49.7495 5.42C50.2962 5.71333 50.7162 6.12667 51.0095 6.66V1.92C51.0095 1.58667 51.1162 1.32 51.3295 1.12C51.5562 0.906666 51.8562 0.799999 52.2295 0.799999ZM48.5295 13.22C49.3295 13.22 49.9429 12.9467 50.3695 12.4C50.8095 11.8533 51.0295 11.0733 51.0295 10.06C51.0295 9.04667 50.8095 8.27333 50.3695 7.74C49.9429 7.19333 49.3362 6.92 48.5495 6.92C47.7495 6.92 47.1295 7.18667 46.6895 7.72C46.2495 8.25333 46.0295 9.02 46.0295 10.02C46.0295 11.0333 46.2495 11.82 46.6895 12.38C47.1295 12.94 47.7429 13.22 48.5295 13.22ZM66.9813 0.799999C67.3546 0.799999 67.6479 0.919999 67.8613 1.16C68.0879 1.38667 68.2013 1.69333 68.2013 2.08V13.82C68.2013 14.2067 68.0879 14.52 67.8613 14.76C67.6346 15 67.3413 15.12 66.9813 15.12C66.5546 15.12 66.2279 14.9667 66.0013 14.66L58.7013 5.16V13.82C58.7013 14.2067 58.5946 14.52 58.3813 14.76C58.1679 15 57.8746 15.12 57.5013 15.12C57.1279 15.12 56.8346 15 56.6213 14.76C56.4079 14.52 56.3013 14.2067 56.3013 13.82V2.08C56.3013 1.69333 56.4146 1.38667 56.6413 1.16C56.8679 0.919999 57.1679 0.799999 57.5413 0.799999C57.9546 0.799999 58.2746 0.953333 58.5013 1.26L65.7813 10.72V2.08C65.7813 1.69333 65.8879 1.38667 66.1013 1.16C66.3279 0.919999 66.6213 0.799999 66.9813 0.799999ZM75.2627 4.98C76.6227 4.98 77.6293 5.32 78.2827 6C78.9493 6.66667 79.2827 7.68667 79.2827 9.06V13.94C79.2827 14.3 79.176 14.5867 78.9627 14.8C78.7493 15 78.456 15.1 78.0827 15.1C77.736 15.1 77.4493 14.9933 77.2227 14.78C77.0093 14.5667 76.9027 14.2867 76.9027 13.94V13.5C76.676 14.02 76.316 14.4267 75.8227 14.72C75.3427 15.0133 74.7827 15.16 74.1427 15.16C73.4893 15.16 72.896 15.0267 72.3627 14.76C71.8293 14.4933 71.4093 14.1267 71.1027 13.66C70.796 13.1933 70.6427 12.6733 70.6427 12.1C70.6427 11.38 70.8227 10.8133 71.1827 10.4C71.556 9.98667 72.156 9.68667 72.9827 9.5C73.8093 9.31333 74.9493 9.22 76.4027 9.22H76.9027V8.76C76.9027 8.10667 76.7627 7.63333 76.4827 7.34C76.2027 7.03333 75.7493 6.88 75.1227 6.88C74.736 6.88 74.3427 6.94 73.9427 7.06C73.5427 7.16667 73.0693 7.32667 72.5227 7.54C72.176 7.71333 71.9227 7.8 71.7627 7.8C71.5227 7.8 71.3227 7.71333 71.1627 7.54C71.016 7.36667 70.9427 7.14 70.9427 6.86C70.9427 6.63333 70.996 6.44 71.1027 6.28C71.2227 6.10667 71.416 5.94667 71.6827 5.8C72.1493 5.54667 72.7027 5.34667 73.3427 5.2C73.996 5.05333 74.636 4.98 75.2627 4.98ZM74.6427 13.36C75.3093 13.36 75.8493 13.14 76.2627 12.7C76.6893 12.2467 76.9027 11.6667 76.9027 10.96V10.54H76.5427C75.6493 10.54 74.956 10.58 74.4627 10.66C73.9693 10.74 73.616 10.88 73.4027 11.08C73.1893 11.28 73.0827 11.5533 73.0827 11.9C73.0827 12.3267 73.2293 12.68 73.5227 12.96C73.8293 13.2267 74.2027 13.36 74.6427 13.36ZM93.4434 4.98C94.5101 4.98 95.3234 5.3 95.8834 5.94C96.4568 6.56667 96.7434 7.58667 96.7434 9V13.92C96.7434 14.3067 96.6234 14.6067 96.3834 14.82C96.1568 15.02 95.8568 15.12 95.4834 15.12C95.1234 15.12 94.8234 15.02 94.5834 14.82C94.3568 14.6067 94.2434 14.3067 94.2434 13.92V9C94.2434 8.26667 94.1101 7.74667 93.8434 7.44C93.5901 7.12 93.1968 6.96 92.6634 6.96C92.0101 6.96 91.4901 7.18667 91.1034 7.64C90.7168 8.08 90.5234 8.68667 90.5234 9.46V13.92C90.5234 14.3067 90.4034 14.6067 90.1634 14.82C89.9368 15.02 89.6434 15.12 89.2834 15.12C88.9234 15.12 88.6234 15.02 88.3834 14.82C88.1434 14.6067 88.0234 14.3067 88.0234 13.92V9C88.0234 8.26667 87.8901 7.74667 87.6234 7.44C87.3701 7.12 86.9768 6.96 86.4434 6.96C85.7901 6.96 85.2701 7.18667 84.8834 7.64C84.5101 8.08 84.3234 8.68667 84.3234 9.46V13.92C84.3234 14.3067 84.2034 14.6067 83.9634 14.82C83.7234 15.02 83.4234 15.12 83.0634 15.12C82.7034 15.12 82.4034 15.02 82.1634 14.82C81.9368 14.6067 81.8234 14.3067 81.8234 13.92V6.18C81.8234 5.80667 81.9434 5.52 82.1834 5.32C82.4234 5.12 82.7234 5.02 83.0834 5.02C83.4301 5.02 83.7101 5.12 83.9234 5.32C84.1501 5.50667 84.2634 5.78 84.2634 6.14V6.62C84.5701 6.08667 84.9768 5.68 85.4834 5.4C86.0034 5.12 86.5968 4.98 87.2634 4.98C88.7301 4.98 89.7101 5.59333 90.2034 6.82C90.4968 6.26 90.9301 5.81333 91.5034 5.48C92.0768 5.14667 92.7234 4.98 93.4434 4.98ZM107.024 12.32C107.251 12.32 107.431 12.4067 107.564 12.58C107.711 12.7533 107.784 12.9867 107.784 13.28C107.784 13.6933 107.538 14.04 107.044 14.32C106.591 14.5733 106.078 14.78 105.504 14.94C104.931 15.0867 104.384 15.16 103.864 15.16C102.291 15.16 101.044 14.7067 100.124 13.8C99.2044 12.8933 98.7444 11.6533 98.7444 10.08C98.7444 9.08 98.9444 8.19333 99.3444 7.42C99.7444 6.64667 100.304 6.04667 101.024 5.62C101.758 5.19333 102.584 4.98 103.504 4.98C104.384 4.98 105.151 5.17333 105.804 5.56C106.458 5.94667 106.964 6.49333 107.324 7.2C107.684 7.90667 107.864 8.74 107.864 9.7C107.864 10.2733 107.611 10.56 107.104 10.56H101.204C101.284 11.48 101.544 12.16 101.984 12.6C102.424 13.0267 103.064 13.24 103.904 13.24C104.331 13.24 104.704 13.1867 105.024 13.08C105.358 12.9733 105.731 12.8267 106.144 12.64C106.544 12.4267 106.838 12.32 107.024 12.32ZM103.564 6.74C102.884 6.74 102.338 6.95333 101.924 7.38C101.524 7.80667 101.284 8.42 101.204 9.22H105.724C105.698 8.40667 105.498 7.79333 105.124 7.38C104.751 6.95333 104.231 6.74 103.564 6.74Z" fill="#2F3B3F"/>
</svg>
