<svg width="22" height="22" viewBox="0 0 22 22" fill="none" xmlns="http://www.w3.org/2000/svg">
<path d="M21.0833 11.8975H0.916667C0.410665 11.8975 0 11.4869 0 10.9809C0 10.4749 0.410665 10.0642 0.916667 10.0642H21.0833C21.5893 10.0642 22 10.4749 22 10.9809C22 11.4869 21.5893 11.8975 21.0833 11.8975Z" fill="#2F3B3F"/>
<path d="M21.0833 4.86971H0.916667C0.410665 4.86971 0 4.45905 0 3.95304C0 3.44704 0.410665 3.03638 0.916667 3.03638H21.0833C21.5893 3.03638 22 3.44704 22 3.95304C22 4.45905 21.5893 4.86971 21.0833 4.86971Z" fill="#2F3B3F"/>
<path d="M21.0833 18.9254H0.916667C0.410665 18.9254 0 18.5147 0 18.0087C0 17.5027 0.410665 17.092 0.916667 17.092H21.0833C21.5893 17.092 22 17.5027 22 18.0087C22 18.5147 21.5893 18.9254 21.0833 18.9254Z" fill="#2F3B3F"/>
</svg>
