<svg width="108" height="16" fill="none" xmlns="http://www.w3.org/2000/svg"><path d="M9.2 7.72c.813.227 1.44.64 1.88 1.24.453.6.68 1.333.68 2.2 0 1.2-.433 2.14-1.3 2.82-.853.68-2.033 1.02-3.54 1.02H1.76c-.387 0-.693-.107-.92-.32-.213-.213-.32-.513-.32-.9V2.12c0-.387.107-.687.32-.9.227-.213.533-.32.92-.32h4.96c1.467 0 2.613.327 3.44.98.84.64 1.26 1.54 1.26 2.7 0 .747-.2 1.393-.6 1.94-.387.547-.927.947-1.62 1.2zm-6.16-.88H6.3c1.773 0 2.66-.66 2.66-1.98 0-.667-.22-1.16-.66-1.48-.44-.32-1.107-.48-2-.48H3.04v3.94zM6.64 13c.933 0 1.613-.167 2.04-.5.427-.333.64-.853.64-1.56 0-.707-.22-1.233-.66-1.58-.427-.347-1.1-.52-2.02-.52h-3.6V13h3.6zm12.772-7.98c.347-.027.62.047.82.22.2.173.3.433.3.78 0 .36-.086.627-.26.8-.173.173-.486.287-.94.34l-.6.06c-.786.08-1.366.347-1.74.8-.36.453-.54 1.02-.54 1.7v4.2c0 .387-.12.687-.36.9-.24.2-.54.3-.9.3s-.66-.1-.9-.3c-.226-.213-.34-.513-.34-.9V6.18c0-.373.114-.66.34-.86.24-.2.534-.3.88-.3.347 0 .627.1.84.3.214.187.32.46.32.82v.8c.254-.587.627-1.04 1.12-1.36.507-.32 1.067-.5 1.68-.54l.28-.02zm6.398-.04c1.36 0 2.366.34 3.02 1.02.666.667 1 1.687 1 3.06v4.88c0 .36-.107.647-.32.86-.214.2-.507.3-.88.3-.347 0-.634-.107-.86-.32-.214-.213-.32-.493-.32-.84v-.44c-.227.52-.587.927-1.08 1.22-.48.293-1.04.44-1.68.44a3.924 3.924 0 01-1.78-.4 3.167 3.167 0 01-1.26-1.1 2.78 2.78 0 01-.46-1.56c0-.72.18-1.287.54-1.7.373-.413.973-.713 1.8-.9.826-.187 1.966-.28 3.42-.28h.5v-.46c0-.653-.14-1.127-.42-1.42-.28-.307-.734-.46-1.36-.46-.387 0-.78.06-1.18.18-.4.107-.874.267-1.42.48-.347.173-.6.26-.76.26a.783.783 0 01-.6-.26c-.147-.173-.22-.4-.22-.68 0-.227.053-.42.16-.58.12-.173.313-.333.58-.48a6.534 6.534 0 011.66-.6 8.75 8.75 0 011.92-.22zm-.62 8.38c.666 0 1.206-.22 1.62-.66.426-.453.64-1.033.64-1.74v-.42h-.36c-.894 0-1.587.04-2.08.12-.494.08-.847.22-1.06.42-.214.2-.32.473-.32.82 0 .427.146.78.44 1.06.306.267.68.4 1.12.4zm12.86-8.38c1.174 0 2.047.333 2.62 1 .574.667.86 1.673.86 3.02v4.92c0 .373-.113.667-.34.88-.213.213-.513.32-.9.32-.386 0-.693-.107-.92-.32-.226-.213-.34-.507-.34-.88V9.14c0-.76-.146-1.313-.44-1.66-.28-.347-.726-.52-1.34-.52-.72 0-1.3.227-1.74.68-.426.453-.64 1.06-.64 1.82v4.46c0 .373-.113.667-.34.88-.226.213-.533.32-.92.32-.386 0-.693-.107-.92-.32-.213-.213-.32-.507-.32-.88V6.18c0-.347.114-.627.34-.84.227-.213.534-.32.92-.32.347 0 .627.107.84.32.227.2.34.467.34.8v.54c.334-.547.78-.967 1.34-1.26.56-.293 1.194-.44 1.9-.44zM52.23.8c.373 0 .68.107.92.32.24.213.36.493.36.84v11.96c0 .36-.114.647-.34.86-.227.213-.527.32-.9.32-.374 0-.674-.107-.9-.32-.227-.213-.34-.5-.34-.86v-.5a3.12 3.12 0 01-1.28 1.28c-.547.307-1.174.46-1.88.46-.84 0-1.594-.213-2.26-.64-.654-.427-1.167-1.027-1.54-1.8-.36-.787-.54-1.687-.54-2.7 0-1.013.18-1.9.54-2.66.373-.76.886-1.347 1.54-1.76.653-.413 1.406-.62 2.26-.62.706 0 1.333.147 1.88.44a3.06 3.06 0 011.26 1.24V1.92c0-.333.106-.6.32-.8.226-.213.526-.32.9-.32zm-3.7 12.42c.8 0 1.413-.273 1.84-.82.44-.547.66-1.327.66-2.34s-.22-1.787-.66-2.32c-.427-.547-1.034-.82-1.82-.82-.8 0-1.42.267-1.86.8-.44.533-.66 1.3-.66 2.3 0 1.013.22 1.8.66 2.36.44.56 1.053.84 1.84.84zM66.98.8c.374 0 .667.12.88.36.227.227.34.533.34.92v11.74c0 .387-.113.7-.34.94-.226.24-.52.36-.88.36-.426 0-.753-.153-.98-.46l-7.3-9.5v8.66c0 .387-.106.7-.32.94-.213.24-.506.36-.88.36-.373 0-.666-.12-.88-.36-.213-.24-.32-.553-.32-.94V2.08c0-.387.114-.693.34-.92.227-.24.527-.36.9-.36.414 0 .734.153.96.46l7.28 9.46V2.08c0-.387.107-.693.32-.92.227-.24.52-.36.88-.36zm8.282 4.18c1.36 0 2.366.34 3.02 1.02.666.667 1 1.687 1 3.06v4.88c0 .36-.107.647-.32.86-.214.2-.507.3-.88.3-.347 0-.634-.107-.86-.32-.214-.213-.32-.493-.32-.84v-.44c-.227.52-.587.927-1.08 1.22-.48.293-1.04.44-1.68.44a3.923 3.923 0 01-1.78-.4 3.166 3.166 0 01-1.26-1.1 2.78 2.78 0 01-.46-1.56c0-.72.18-1.287.54-1.7.373-.413.973-.713 1.8-.9.826-.187 1.966-.28 3.42-.28h.5v-.46c0-.653-.14-1.127-.42-1.42-.28-.307-.734-.46-1.36-.46-.387 0-.78.06-1.18.18-.4.107-.874.267-1.42.48-.347.173-.6.26-.76.26a.783.783 0 01-.6-.26c-.147-.173-.22-.4-.22-.68 0-.227.053-.42.16-.58.12-.173.313-.333.58-.48a6.532 6.532 0 011.66-.6 8.75 8.75 0 011.92-.22zm-.62 8.38c.666 0 1.206-.22 1.62-.66.426-.453.64-1.033.64-1.74v-.42h-.36c-.894 0-1.587.04-2.08.12-.494.08-.847.22-1.06.42-.214.2-.32.473-.32.82 0 .427.146.78.44 1.06.306.267.68.4 1.12.4zm18.8-8.38c1.067 0 1.88.32 2.44.96.574.627.86 1.647.86 3.06v4.92c0 .387-.12.687-.36.9-.226.2-.526.3-.9.3-.36 0-.66-.1-.9-.3-.226-.213-.34-.513-.34-.9V9c0-.733-.133-1.253-.4-1.56-.253-.32-.646-.48-1.18-.48-.653 0-1.173.227-1.56.68-.386.44-.58 1.047-.58 1.82v4.46c0 .387-.12.687-.36.9-.226.2-.52.3-.88.3s-.66-.1-.9-.3c-.24-.213-.36-.513-.36-.9V9c0-.733-.133-1.253-.4-1.56-.253-.32-.646-.48-1.18-.48-.653 0-1.173.227-1.56.68-.373.44-.56 1.047-.56 1.82v4.46c0 .387-.12.687-.36.9-.24.2-.54.3-.9.3s-.66-.1-.9-.3c-.226-.213-.34-.513-.34-.9V6.18c0-.373.12-.66.36-.86.24-.2.54-.3.9-.3.347 0 .627.1.84.3.227.187.34.46.34.82v.48c.307-.533.714-.94 1.22-1.22.52-.28 1.114-.42 1.78-.42 1.467 0 2.447.613 2.94 1.84a3.306 3.306 0 011.3-1.34c.574-.333 1.22-.5 1.94-.5zm13.581 7.34c.227 0 .407.087.54.26.147.173.22.407.22.7 0 .413-.246.76-.74 1.04a6.99 6.99 0 01-1.54.62c-.573.147-1.12.22-1.64.22-1.573 0-2.82-.453-3.74-1.36-.92-.907-1.38-2.147-1.38-3.72 0-1 .2-1.887.6-2.66.4-.773.96-1.373 1.68-1.8.734-.427 1.56-.64 2.48-.64.88 0 1.647.193 2.3.58.654.387 1.16.933 1.52 1.64.36.707.54 1.54.54 2.5 0 .573-.253.86-.76.86h-5.9c.08.92.34 1.6.78 2.04.44.427 1.08.64 1.92.64.427 0 .8-.053 1.12-.16.334-.107.707-.253 1.12-.44.4-.213.694-.32.88-.32zm-3.46-5.58c-.68 0-1.226.213-1.64.64-.4.427-.64 1.04-.72 1.84h4.52c-.026-.813-.226-1.427-.6-1.84-.373-.427-.893-.64-1.56-.64z" fill="#2F3B3F"/></svg>