<svg width="50" height="50" fill="none" xmlns="http://www.w3.org/2000/svg"><g clip-path="url(#clip0)"><path d="M22.922 5.873H10.49c-.754 0-1.367.613-1.367 1.367v15.527c0 .753.613 1.367 1.367 1.367h12.432a1.37 1.37 0 001.367-1.367V7.24c0-.754-.614-1.367-1.367-1.367zm-.056 16.837h-12.32V7.296h12.32v15.415zm.056 3.036H10.49c-.754 0-1.367.614-1.367 1.367V42.64c0 .755.613 1.368 1.367 1.368h12.432a1.37 1.37 0 001.367-1.367V27.112a1.37 1.37 0 00-1.367-1.367zm-.056 16.838h-12.32V27.169h12.32v15.415zM39.51 5.873H27.079a1.37 1.37 0 00-1.368 1.367v15.527a1.37 1.37 0 001.368 1.367H39.51c.754 0 1.367-.614 1.367-1.367V7.24c0-.754-.613-1.367-1.367-1.367zm-.056 16.837h-12.32V7.296h12.32v15.415zm.056 3.036H27.079a1.37 1.37 0 00-1.368 1.367V42.64a1.37 1.37 0 001.368 1.368H39.51c.754 0 1.367-.614 1.367-1.367V27.112c0-.753-.613-1.367-1.367-1.367zm-.056 16.838h-12.32V27.169h12.32v15.415z" fill="#3D626F"/><path d="M48.196 44.883H46.75V10.75a.712.712 0 00-1.424 0v34.132H43.63V4.655c0-.845-.688-1.534-1.534-1.534H7.905c-.846 0-1.534.689-1.534 1.534v40.228H4.673v-7.016a.712.712 0 00-1.424 0v7.016H1.804c-.786 0-1.426.64-1.426 1.426v2.265c0 .786.64 1.426 1.426 1.426h46.392c.786 0 1.426-.64 1.426-1.426v-2.265c0-.787-.64-1.426-1.426-1.426zM7.794 4.655c0-.06.05-.11.111-.11h34.19c.061 0 .11.05.11.11v40.228H7.795V4.655zm40.403 43.922h-.002l-46.394-.003.003-2.268 46.395.003-.002 2.268z" fill="#D7D7D7"/><path d="M45.408 0H4.592C3.852 0 3.25.602 3.25 1.343v33.146a.712.712 0 001.424 0V1.423h40.654v5.942a.712.712 0 101.424 0V1.343A1.347 1.347 0 0045.408 0z" fill="#3D626F"/></g><defs><clipPath id="clip0"><path fill="#fff" d="M0 0h50v50H0z"/></clipPath></defs></svg>